<mxfile host="Electron" modified="2024-02-27T08:02:42.899Z" agent="Mozilla/5.0 (Windows NT 10.0; Win64; x64) AppleWebKit/537.36 (KHTML, like Gecko) draw.io/23.1.5 Chrome/120.0.6099.109 Electron/28.1.0 Safari/537.36" etag="wY--0CZFURLXZT5n-fuU" version="23.1.5" type="device">
  <diagram name="Page-1" id="LvQq4KdfzIVMqspTHlLE">
    <mxGraphModel dx="2580" dy="1013" grid="1" gridSize="10" guides="1" tooltips="1" connect="1" arrows="1" fold="1" page="1" pageScale="1" pageWidth="850" pageHeight="1100" math="0" shadow="0">
      <root>
        <mxCell id="0" />
        <mxCell id="1" parent="0" />
        <mxCell id="3MkCPVRadBczdbg8x7rA-3" style="edgeStyle=orthogonalEdgeStyle;rounded=0;orthogonalLoop=1;jettySize=auto;html=1;entryX=0.5;entryY=0;entryDx=0;entryDy=0;exitX=0.5;exitY=1;exitDx=0;exitDy=0;" edge="1" parent="1" source="3MkCPVRadBczdbg8x7rA-1" target="3MkCPVRadBczdbg8x7rA-2">
          <mxGeometry relative="1" as="geometry" />
        </mxCell>
        <mxCell id="3MkCPVRadBczdbg8x7rA-32" style="edgeStyle=orthogonalEdgeStyle;rounded=0;orthogonalLoop=1;jettySize=auto;html=1;entryX=0.5;entryY=0;entryDx=0;entryDy=0;exitX=0.5;exitY=1;exitDx=0;exitDy=0;" edge="1" parent="1" source="3MkCPVRadBczdbg8x7rA-1" target="3MkCPVRadBczdbg8x7rA-31">
          <mxGeometry relative="1" as="geometry" />
        </mxCell>
        <mxCell id="3MkCPVRadBczdbg8x7rA-1" value="Log in (OAuth2)&lt;br&gt;Domain hvnh.edu.vn" style="rounded=0;whiteSpace=wrap;html=1;" vertex="1" parent="1">
          <mxGeometry x="370" y="80" width="120" height="60" as="geometry" />
        </mxCell>
        <mxCell id="3MkCPVRadBczdbg8x7rA-5" style="edgeStyle=orthogonalEdgeStyle;rounded=0;orthogonalLoop=1;jettySize=auto;html=1;entryX=0;entryY=0.5;entryDx=0;entryDy=0;" edge="1" parent="1" source="3MkCPVRadBczdbg8x7rA-2" target="3MkCPVRadBczdbg8x7rA-4">
          <mxGeometry relative="1" as="geometry" />
        </mxCell>
        <mxCell id="3MkCPVRadBczdbg8x7rA-6" value="ROLE_TEACHER" style="edgeLabel;html=1;align=center;verticalAlign=middle;resizable=0;points=[];" vertex="1" connectable="0" parent="3MkCPVRadBczdbg8x7rA-5">
          <mxGeometry x="-0.1627" y="2" relative="1" as="geometry">
            <mxPoint x="7" y="2" as="offset" />
          </mxGeometry>
        </mxCell>
        <mxCell id="3MkCPVRadBczdbg8x7rA-8" style="edgeStyle=orthogonalEdgeStyle;rounded=0;orthogonalLoop=1;jettySize=auto;html=1;entryX=1;entryY=0.5;entryDx=0;entryDy=0;" edge="1" parent="1" source="3MkCPVRadBczdbg8x7rA-2" target="3MkCPVRadBczdbg8x7rA-7">
          <mxGeometry relative="1" as="geometry" />
        </mxCell>
        <mxCell id="3MkCPVRadBczdbg8x7rA-9" value="ROLE_STUDENT/TEACHER" style="edgeLabel;html=1;align=center;verticalAlign=middle;resizable=0;points=[];" vertex="1" connectable="0" parent="3MkCPVRadBczdbg8x7rA-8">
          <mxGeometry x="0.2847" relative="1" as="geometry">
            <mxPoint x="-2" y="-49" as="offset" />
          </mxGeometry>
        </mxCell>
        <mxCell id="3MkCPVRadBczdbg8x7rA-11" style="edgeStyle=orthogonalEdgeStyle;rounded=0;orthogonalLoop=1;jettySize=auto;html=1;entryX=0.5;entryY=0;entryDx=0;entryDy=0;exitX=0.75;exitY=1;exitDx=0;exitDy=0;" edge="1" parent="1" source="3MkCPVRadBczdbg8x7rA-2" target="3MkCPVRadBczdbg8x7rA-10">
          <mxGeometry relative="1" as="geometry" />
        </mxCell>
        <mxCell id="3MkCPVRadBczdbg8x7rA-12" value="ROLE_TEACHER" style="edgeLabel;html=1;align=center;verticalAlign=middle;resizable=0;points=[];" vertex="1" connectable="0" parent="3MkCPVRadBczdbg8x7rA-11">
          <mxGeometry x="-0.182" y="2" relative="1" as="geometry">
            <mxPoint x="25" as="offset" />
          </mxGeometry>
        </mxCell>
        <mxCell id="3MkCPVRadBczdbg8x7rA-14" style="edgeStyle=orthogonalEdgeStyle;rounded=0;orthogonalLoop=1;jettySize=auto;html=1;entryX=0.5;entryY=0;entryDx=0;entryDy=0;" edge="1" parent="1" source="3MkCPVRadBczdbg8x7rA-2" target="3MkCPVRadBczdbg8x7rA-13">
          <mxGeometry relative="1" as="geometry" />
        </mxCell>
        <mxCell id="3MkCPVRadBczdbg8x7rA-15" value="ROLE_STUDENT/TEACHER" style="edgeLabel;html=1;align=center;verticalAlign=middle;resizable=0;points=[];" vertex="1" connectable="0" parent="3MkCPVRadBczdbg8x7rA-14">
          <mxGeometry x="0.3422" y="-2" relative="1" as="geometry">
            <mxPoint x="2" y="19" as="offset" />
          </mxGeometry>
        </mxCell>
        <mxCell id="3MkCPVRadBczdbg8x7rA-2" value="Class" style="rounded=0;whiteSpace=wrap;html=1;" vertex="1" parent="1">
          <mxGeometry x="560" y="240" width="120" height="60" as="geometry" />
        </mxCell>
        <mxCell id="3MkCPVRadBczdbg8x7rA-4" value="Create Class" style="rounded=0;whiteSpace=wrap;html=1;" vertex="1" parent="1">
          <mxGeometry x="800" y="240" width="120" height="60" as="geometry" />
        </mxCell>
        <mxCell id="3MkCPVRadBczdbg8x7rA-7" value="Join Class" style="rounded=0;whiteSpace=wrap;html=1;" vertex="1" parent="1">
          <mxGeometry x="340" y="390" width="120" height="60" as="geometry" />
        </mxCell>
        <mxCell id="3MkCPVRadBczdbg8x7rA-10" value="Upload Documents" style="rounded=0;whiteSpace=wrap;html=1;" vertex="1" parent="1">
          <mxGeometry x="710" y="370" width="120" height="60" as="geometry" />
        </mxCell>
        <mxCell id="3MkCPVRadBczdbg8x7rA-17" style="edgeStyle=orthogonalEdgeStyle;rounded=0;orthogonalLoop=1;jettySize=auto;html=1;entryX=1;entryY=0.5;entryDx=0;entryDy=0;" edge="1" parent="1" source="3MkCPVRadBczdbg8x7rA-13" target="3MkCPVRadBczdbg8x7rA-16">
          <mxGeometry relative="1" as="geometry" />
        </mxCell>
        <mxCell id="3MkCPVRadBczdbg8x7rA-18" value="ROLE_STUDENT" style="edgeLabel;html=1;align=center;verticalAlign=middle;resizable=0;points=[];" vertex="1" connectable="0" parent="3MkCPVRadBczdbg8x7rA-17">
          <mxGeometry x="-0.3173" y="3" relative="1" as="geometry">
            <mxPoint x="-19" y="-3" as="offset" />
          </mxGeometry>
        </mxCell>
        <mxCell id="3MkCPVRadBczdbg8x7rA-20" style="edgeStyle=orthogonalEdgeStyle;rounded=0;orthogonalLoop=1;jettySize=auto;html=1;entryX=0;entryY=0.5;entryDx=0;entryDy=0;" edge="1" parent="1" source="3MkCPVRadBczdbg8x7rA-13" target="3MkCPVRadBczdbg8x7rA-19">
          <mxGeometry relative="1" as="geometry" />
        </mxCell>
        <mxCell id="3MkCPVRadBczdbg8x7rA-21" value="ROLE_TEACHER" style="edgeLabel;html=1;align=center;verticalAlign=middle;resizable=0;points=[];" vertex="1" connectable="0" parent="3MkCPVRadBczdbg8x7rA-20">
          <mxGeometry x="-0.1714" y="4" relative="1" as="geometry">
            <mxPoint x="12" y="4" as="offset" />
          </mxGeometry>
        </mxCell>
        <mxCell id="3MkCPVRadBczdbg8x7rA-23" style="edgeStyle=orthogonalEdgeStyle;rounded=0;orthogonalLoop=1;jettySize=auto;html=1;entryX=0.5;entryY=0;entryDx=0;entryDy=0;exitX=0.75;exitY=1;exitDx=0;exitDy=0;" edge="1" parent="1" source="3MkCPVRadBczdbg8x7rA-13" target="3MkCPVRadBczdbg8x7rA-22">
          <mxGeometry relative="1" as="geometry" />
        </mxCell>
        <mxCell id="3MkCPVRadBczdbg8x7rA-25" value="ROLE_STUDENT" style="edgeLabel;html=1;align=center;verticalAlign=middle;resizable=0;points=[];" vertex="1" connectable="0" parent="3MkCPVRadBczdbg8x7rA-23">
          <mxGeometry x="-0.1" relative="1" as="geometry">
            <mxPoint x="17" as="offset" />
          </mxGeometry>
        </mxCell>
        <mxCell id="3MkCPVRadBczdbg8x7rA-28" style="edgeStyle=orthogonalEdgeStyle;rounded=0;orthogonalLoop=1;jettySize=auto;html=1;entryX=0.5;entryY=0;entryDx=0;entryDy=0;exitX=0.25;exitY=1;exitDx=0;exitDy=0;" edge="1" parent="1" source="3MkCPVRadBczdbg8x7rA-13" target="3MkCPVRadBczdbg8x7rA-27">
          <mxGeometry relative="1" as="geometry" />
        </mxCell>
        <mxCell id="3MkCPVRadBczdbg8x7rA-29" value="ROLE_STUDENT" style="edgeLabel;html=1;align=center;verticalAlign=middle;resizable=0;points=[];" vertex="1" connectable="0" parent="3MkCPVRadBczdbg8x7rA-28">
          <mxGeometry x="0.4087" y="3" relative="1" as="geometry">
            <mxPoint x="47" y="-3" as="offset" />
          </mxGeometry>
        </mxCell>
        <mxCell id="3MkCPVRadBczdbg8x7rA-13" value="Exam" style="rounded=0;whiteSpace=wrap;html=1;" vertex="1" parent="1">
          <mxGeometry x="600" y="530" width="120" height="60" as="geometry" />
        </mxCell>
        <mxCell id="3MkCPVRadBczdbg8x7rA-16" value="Create Mock Test" style="rounded=0;whiteSpace=wrap;html=1;" vertex="1" parent="1">
          <mxGeometry x="330" y="530" width="120" height="60" as="geometry" />
        </mxCell>
        <mxCell id="3MkCPVRadBczdbg8x7rA-19" value="Create Exam" style="rounded=0;whiteSpace=wrap;html=1;" vertex="1" parent="1">
          <mxGeometry x="860" y="530" width="120" height="60" as="geometry" />
        </mxCell>
        <mxCell id="3MkCPVRadBczdbg8x7rA-22" value="Do Exam" style="rounded=0;whiteSpace=wrap;html=1;" vertex="1" parent="1">
          <mxGeometry x="790" y="650" width="120" height="60" as="geometry" />
        </mxCell>
        <mxCell id="3MkCPVRadBczdbg8x7rA-27" value="Do Mock Test" style="rounded=0;whiteSpace=wrap;html=1;" vertex="1" parent="1">
          <mxGeometry x="410" y="650" width="120" height="60" as="geometry" />
        </mxCell>
        <mxCell id="3MkCPVRadBczdbg8x7rA-34" style="edgeStyle=orthogonalEdgeStyle;rounded=0;orthogonalLoop=1;jettySize=auto;html=1;entryX=0.5;entryY=0;entryDx=0;entryDy=0;" edge="1" parent="1" source="3MkCPVRadBczdbg8x7rA-31" target="3MkCPVRadBczdbg8x7rA-33">
          <mxGeometry relative="1" as="geometry" />
        </mxCell>
        <mxCell id="3MkCPVRadBczdbg8x7rA-35" value="ROLE_TEACHER" style="edgeLabel;html=1;align=center;verticalAlign=middle;resizable=0;points=[];" vertex="1" connectable="0" parent="3MkCPVRadBczdbg8x7rA-34">
          <mxGeometry x="-0.097" relative="1" as="geometry">
            <mxPoint x="10" as="offset" />
          </mxGeometry>
        </mxCell>
        <mxCell id="3MkCPVRadBczdbg8x7rA-37" style="edgeStyle=orthogonalEdgeStyle;rounded=0;orthogonalLoop=1;jettySize=auto;html=1;entryX=0.5;entryY=0;entryDx=0;entryDy=0;exitX=0.5;exitY=1;exitDx=0;exitDy=0;" edge="1" parent="1" source="3MkCPVRadBczdbg8x7rA-31" target="3MkCPVRadBczdbg8x7rA-36">
          <mxGeometry relative="1" as="geometry" />
        </mxCell>
        <mxCell id="3MkCPVRadBczdbg8x7rA-38" value="ROLE_TEACHER" style="edgeLabel;html=1;align=center;verticalAlign=middle;resizable=0;points=[];" vertex="1" connectable="0" parent="3MkCPVRadBczdbg8x7rA-37">
          <mxGeometry x="0.3121" y="2" relative="1" as="geometry">
            <mxPoint x="39" as="offset" />
          </mxGeometry>
        </mxCell>
        <mxCell id="3MkCPVRadBczdbg8x7rA-40" style="edgeStyle=orthogonalEdgeStyle;rounded=0;orthogonalLoop=1;jettySize=auto;html=1;entryX=1;entryY=0.5;entryDx=0;entryDy=0;" edge="1" parent="1" source="3MkCPVRadBczdbg8x7rA-31" target="3MkCPVRadBczdbg8x7rA-39">
          <mxGeometry relative="1" as="geometry" />
        </mxCell>
        <mxCell id="3MkCPVRadBczdbg8x7rA-42" value="ROLE_STUDENT" style="edgeLabel;html=1;align=center;verticalAlign=middle;resizable=0;points=[];" vertex="1" connectable="0" parent="3MkCPVRadBczdbg8x7rA-40">
          <mxGeometry x="0.0739" y="2" relative="1" as="geometry">
            <mxPoint as="offset" />
          </mxGeometry>
        </mxCell>
        <mxCell id="3MkCPVRadBczdbg8x7rA-31" value="Statistic/&lt;br&gt;Report/&lt;br&gt;Evaluate" style="rounded=0;whiteSpace=wrap;html=1;" vertex="1" parent="1">
          <mxGeometry x="70" y="240" width="120" height="60" as="geometry" />
        </mxCell>
        <mxCell id="3MkCPVRadBczdbg8x7rA-33" value="Report Inside Class" style="rounded=0;whiteSpace=wrap;html=1;" vertex="1" parent="1">
          <mxGeometry x="190" y="430" width="120" height="60" as="geometry" />
        </mxCell>
        <mxCell id="3MkCPVRadBczdbg8x7rA-36" value="Compare Scores&lt;br&gt;With Others Class" style="rounded=0;whiteSpace=wrap;html=1;" vertex="1" parent="1">
          <mxGeometry x="-60" y="430" width="120" height="60" as="geometry" />
        </mxCell>
        <mxCell id="3MkCPVRadBczdbg8x7rA-39" value="Compare Exams Student Doing&amp;nbsp;" style="rounded=0;whiteSpace=wrap;html=1;" vertex="1" parent="1">
          <mxGeometry x="-180" y="140" width="120" height="60" as="geometry" />
        </mxCell>
      </root>
    </mxGraphModel>
  </diagram>
</mxfile>
